<?xml version="1.0" standalone="no"?>
<!DOCTYPE svg PUBLIC "-//W3C//DTD SVG 20010904//EN"
 "http://www.w3.org/TR/2001/REC-SVG-20010904/DTD/svg10.dtd">
<svg version="1.0" xmlns="http://www.w3.org/2000/svg"
 width="630.000000pt" height="372.000000pt" viewBox="0 0 630.000000 372.000000"
 preserveAspectRatio="xMidYMid meet">
<metadata>
Created by potrace 1.15, written by Peter Selinger 2001-2017
</metadata>
<g transform="translate(0.000000,372.000000) scale(0.100000,-0.100000)"
fill="#000000" stroke="none">
<path d="M3892 2993 c-197 -314 -299 -533 -317 -676 -14 -108 29 -230 112
-318 57 -61 111 -93 193 -114 171 -45 350 28 448 183 34 53 62 149 62 213 0
93 -78 301 -181 483 -72 127 -219 356 -229 356 -4 0 -44 -57 -88 -127z m190
-524 c50 -25 95 -83 108 -140 44 -182 -139 -327 -308 -243 -184 92 -145 364
58 405 45 9 96 1 142 -22z"/>
<path d="M1818 2731 c-156 -40 -275 -174 -297 -334 -4 -34 -6 -80 -4 -102 13
-117 129 -370 286 -620 135 -214 108 -207 203 -58 110 173 224 386 275 513 73
182 62 331 -33 451 -72 91 -123 125 -233 154 -74 19 -113 18 -197 -4z m226
-208 c53 -37 96 -118 96 -184 0 -60 -43 -145 -89 -176 -54 -37 -107 -47 -171
-34 -208 42 -236 327 -40 416 55 25 152 14 204 -22z"/>
<path d="M2478 2663 l-28 -4 0 -345 0 -344 80 0 80 0 0 109 0 108 83 5 c133 7
212 63 237 168 14 59 7 147 -14 189 -25 47 -78 91 -130 106 -47 14 -236 19
-308 8z m267 -137 c45 -45 45 -147 0 -192 -20 -20 -34 -24 -80 -24 l-55 0 0
120 0 120 55 0 c46 0 60 -4 80 -24z"/>
<path d="M4951 2657 c-14 -6 -29 -25 -33 -42 -5 -16 -7 -129 -4 -249 4 -121 4
-218 2 -215 -2 2 -14 29 -26 59 -12 30 -60 144 -107 253 l-86 197 -93 0 -94 0
0 -345 0 -345 77 0 76 0 -6 253 -5 252 28 -70 c16 -38 64 -151 108 -250 l79
-180 97 -3 96 -3 0 351 0 350 -42 0 c-24 0 -54 -6 -67 -13z"/>
<path d="M880 2315 l0 -345 50 0 c28 0 50 -3 49 -7 0 -5 -57 -56 -127 -115
l-127 -108 -168 0 c-193 0 -215 -6 -270 -70 -76 -90 -108 -231 -109 -488 0
-152 2 -175 17 -192 23 -26 67 -26 90 0 15 17 18 39 17 177 0 160 15 283 42
345 13 29 14 -40 15 -585 1 -670 0 -660 56 -685 44 -20 75 -14 111 22 l34 34
0 380 c0 371 0 380 20 385 20 5 20 0 20 -374 0 -417 1 -425 59 -449 39 -16 82
-5 112 26 l24 26 2 546 c2 301 3 604 3 674 l0 127 221 188 c121 103 225 190
230 191 5 2 9 -8 9 -22 0 -26 1 -26 75 -26 l75 0 0 345 0 345 -75 0 -75 0 0
-135 0 -135 -110 0 -110 0 0 135 0 135 -80 0 -80 0 0 -345z m380 -121 c0 -50
-2 -55 -20 -49 -26 8 -53 -7 -132 -78 l-68 -59 0 121 0 121 110 0 110 0 0 -56z"/>
<path d="M3026 2616 c-4 -24 -4 -56 0 -71 l7 -28 148 5 148 5 -17 -22 c-9 -12
-81 -107 -159 -210 -151 -198 -151 -199 -137 -287 l7 -38 202 0 c269 0 285 6
285 110 0 46 -2 51 -17 45 -22 -8 -75 -13 -211 -19 l-103 -5 57 72 c161 204
264 350 264 373 0 14 -5 45 -11 70 l-11 44 -223 0 -223 0 -6 -44z"/>
<path d="M5210 2344 l0 -316 29 -29 29 -29 172 0 172 0 29 29 c23 23 29 39 29
70 l0 41 -150 0 -150 0 0 65 0 65 109 0 c121 0 121 0 121 70 0 70 0 70 -121
70 l-109 0 0 70 0 70 135 0 c101 0 137 3 141 13 5 14 8 68 6 105 l-2 22 -220
0 -220 0 0 -316z"/>
<path d="M488 2130 c-106 -56 -118 -223 -22 -296 121 -92 294 -9 294 141 0 60
-46 132 -102 161 -39 20 -126 17 -170 -6z"/>
<path d="M1419 919 c-255 -265 -485 -504 -511 -533 -44 -48 -54 -67 -34 -68
13 0 1035 1065 1030 1074 -3 4 -9 8 -13 8 -4 0 -216 -217 -472 -481z"/>
</g>
</svg>
