<svg width="5710" height="4393" viewBox="0 0 5710 4393" fill="none" xmlns="http://www.w3.org/2000/svg">
<path d="M0 0H5689V4393H0V0Z" fill="url(#paint0_linear)"/>
<path d="M5598 4041.5C5598 4162.73 5498.83 4261 5376.5 4261C5254.17 4261 5155 4162.73 5155 4041.5C5155 3920.27 5254.17 3822 5376.5 3822C5498.83 3822 5598 3920.27 5598 4041.5Z" fill="#3860ED" fill-opacity="0.28"/>
<path d="M893 3881C893 4033.43 773.012 4157 625 4157C476.988 4157 357 4033.43 357 3881C357 3728.57 476.988 3605 625 3605C773.012 3605 893 3728.57 893 3881Z" fill="#3860ED" fill-opacity="0.28"/>
<path d="M0 3131L322.836 3186.46H2537.41H5175.22L5689 3131V3488.74L4515.77 3568.68L2013.79 3822L552.168 3517.22L0 3488.74V3131Z" fill="#19BED1" fill-opacity="0.44"/>
<path d="M815.573 1126.83L407.787 2253.67H1223.36L815.573 1126.83Z" fill="#444444" fill-opacity="0.05"/>
<path d="M815.573 1126.83L1223.36 0H407.787L815.573 1126.83Z" fill="black" fill-opacity="0.04"/>
<path d="M1631.14 1126.83L2038.93 0H1223.36L1631.14 1126.83Z" fill="#AAAAAA" fill-opacity="0.1"/>
<path d="M2446.71 1126.83L2038.93 2253.67H2854.5L2446.71 1126.83Z" fill="#DDDDDD" fill-opacity="0.04"/>
<path d="M2446.71 1126.83L2854.5 0H2038.93L2446.71 1126.83Z" fill="#999999" fill-opacity="0.06"/>
<path d="M3262.29 1126.83L3670.07 0H2854.5L3262.29 1126.83Z" fill="#DDDDDD" fill-opacity="0.04"/>
<path d="M4077.86 1126.83L3670.07 2253.67H4485.64L4077.86 1126.83Z" fill="#444444" fill-opacity="0.05"/>
<path d="M4077.86 1126.83L4485.64 0H3670.07L4077.86 1126.83Z" fill="white" fill-opacity="0.03"/>
<path d="M4893.43 1126.83L4485.64 2253.67H5301.21L4893.43 1126.83Z" fill="#DDDDDD" fill-opacity="0.04"/>
<path d="M4893.43 1126.83L5301.21 0H4485.64L4893.43 1126.83Z" fill="#444444" fill-opacity="0.05"/>
<path d="M815.573 3380.5L407.787 4507.33H1223.36L815.573 3380.5Z" fill="#DDDDDD" fill-opacity="0.04"/>
<path d="M815.573 3380.5L1223.36 2253.67H407.787L815.573 3380.5Z" fill="black" fill-opacity="0.04"/>
<path d="M1631.14 3380.5L1223.36 4507.33H2038.93L1631.14 3380.5Z" fill="#666666" fill-opacity="0.06"/>
<path d="M1631.14 3380.5L2038.93 2253.67H1223.36L1631.14 3380.5Z" fill="#AAAAAA" fill-opacity="0.1"/>
<path d="M2446.71 3380.5L2038.93 4507.33H2854.5L2446.71 3380.5Z" fill="#DDDDDD" fill-opacity="0.04"/>
<path d="M2446.71 3380.5L2854.5 2253.67H2038.93L2446.71 3380.5Z" fill="#999999" fill-opacity="0.06"/>
<path d="M3262.29 3380.5L2854.5 4507.33H3670.07L3262.29 3380.5Z" fill="#999999" fill-opacity="0.06"/>
<path d="M3262.29 3380.5L3670.07 2253.67H2854.5L3262.29 3380.5Z" fill="white" fill-opacity="0.03"/>
<path d="M4077.86 3380.5L3670.07 4507.33H4485.64L4077.86 3380.5Z" fill="black" fill-opacity="0.04"/>
<path d="M4077.86 3380.5L4485.64 2253.67H3670.07L4077.86 3380.5Z" fill="#DDDDDD" fill-opacity="0.04"/>
<path d="M4893.43 3380.5L4485.64 4507.33H5301.21L4893.43 3380.5Z" fill="#AAAAAA" fill-opacity="0.1"/>
<path d="M4893.43 3380.5L5301.21 2253.67H4485.64L4893.43 3380.5Z" fill="#444444" fill-opacity="0.05"/>
<path d="M1223.36 0L815.57 1126.83H1631.14L1223.36 0Z" fill="#999999" fill-opacity="0.06"/>
<path d="M2854.5 0L2446.71 1126.83H3262.29L2854.5 0Z" fill="white" fill-opacity="0.03"/>
<path d="M4485.64 0L4077.86 1126.83H4893.43L4485.64 0Z" fill="black" fill-opacity="0.04"/>
<path d="M407.786 2253.67L0 3380.5H815.572L407.786 2253.67Z" fill="#222222" fill-opacity="0.05"/>
<path d="M407.786 2253.67L815.572 1126.83H0L407.786 2253.67Z" fill="white" fill-opacity="0.03"/>
<path d="M1223.36 2253.67L815.57 3380.5H1631.14L1223.36 2253.67Z" fill="white" fill-opacity="0.03"/>
<path d="M1223.36 2253.67L1631.14 1126.83H815.57L1223.36 2253.67Z" fill="#666666" fill-opacity="0.06"/>
<path d="M2038.93 2253.67L2446.72 1126.83H1631.14L2038.93 2253.67Z" fill="white" fill-opacity="0.03"/>
<path d="M2854.5 2253.67L3262.29 1126.83H2446.71L2854.5 2253.67Z" fill="#222222" fill-opacity="0.05"/>
<path d="M3670.07 2253.67L3262.29 3380.5H4077.86L3670.07 2253.67Z" fill="#AAAAAA" fill-opacity="0.1"/>
<path d="M3670.07 2253.67L4077.86 1126.83H3262.29L3670.07 2253.67Z" fill="#666666" fill-opacity="0.06"/>
<path d="M4485.64 2253.67L4077.86 3380.5H4893.43L4485.64 2253.67Z" fill="white" fill-opacity="0.03"/>
<path d="M4485.64 2253.67L4893.43 1126.83H4077.86L4485.64 2253.67Z" fill="#999999" fill-opacity="0.06"/>
<path d="M407.786 4507.33L815.572 3380.5H0L407.786 4507.33Z" fill="#666666" fill-opacity="0.06"/>
<path d="M1223.36 4507.33L1631.14 3380.5H815.57L1223.36 4507.33Z" fill="#444444" fill-opacity="0.05"/>
<path d="M2038.93 4507.33L2446.72 3380.5H1631.14L2038.93 4507.33Z" fill="#999999" fill-opacity="0.06"/>
<path d="M2854.5 4507.33L3262.29 3380.5H2446.71L2854.5 4507.33Z" fill="#666666" fill-opacity="0.06"/>
<path d="M4485.64 4507.33L4893.43 3380.5H4077.86L4485.64 4507.33Z" fill="#222222" fill-opacity="0.05"/>
<path d="M5301.22 2253.67L4893.43 3380.5H5709L5301.22 2253.67Z" fill="#222222" fill-opacity="0.05"/>
<path d="M5301.22 2253.67L5709 1126.83H4893.43L5301.22 2253.67Z" fill="white" fill-opacity="0.03"/>
<path d="M5301.22 4507.33L5709 3380.5H4893.43L5301.22 4507.33Z" fill="#666666" fill-opacity="0.06"/>
<path d="M1102 3595C1102 3720.37 1008.65 3822 893.5 3822C778.349 3822 685 3720.37 685 3595C685 3469.63 778.349 3368 893.5 3368C1008.65 3368 1102 3469.63 1102 3595Z" fill="#3860ED" fill-opacity="0.28"/>
<path d="M1822 4099C1822 4203.38 1744.32 4288 1648.5 4288C1552.68 4288 1475 4203.38 1475 4099C1475 3994.62 1552.68 3910 1648.5 3910C1744.32 3910 1822 3994.62 1822 4099Z" fill="#3860ED" fill-opacity="0.28"/>
<path d="M3084 3716.5C3084 3788.57 3030.27 3847 2964 3847C2897.73 3847 2844 3788.57 2844 3716.5C2844 3644.43 2897.73 3586 2964 3586C3030.27 3586 3084 3644.43 3084 3716.5Z" fill="#3860ED" fill-opacity="0.28"/>
<path d="M3257 3966C3257 4017.91 3218.27 4060 3170.5 4060C3122.73 4060 3084 4017.91 3084 3966C3084 3914.09 3122.73 3872 3170.5 3872C3218.27 3872 3257 3914.09 3257 3966Z" fill="#3860ED" fill-opacity="0.28"/>
<path d="M3742 4099C3742 4224.37 3648.65 4326 3533.5 4326C3418.35 4326 3325 4224.37 3325 4099C3325 3973.63 3418.35 3872 3533.5 3872C3648.65 3872 3742 3973.63 3742 4099Z" fill="#3860ED" fill-opacity="0.28"/>
<path d="M5376 3871.5C5376 4029.18 5247.06 4157 5088 4157C4928.94 4157 4800 4029.18 4800 3871.5C4800 3713.82 4928.94 3586 5088 3586C5247.06 3586 5376 3713.82 5376 3871.5Z" fill="#3860ED" fill-opacity="0.28"/>
<defs>
<linearGradient id="paint0_linear" x1="2844.5" y1="0" x2="2844.5" y2="4393" gradientUnits="userSpaceOnUse">
<stop stop-color="#4167ED"/>
<stop offset="1" stop-color="#13CDCD"/>
</linearGradient>
</defs>
</svg>
