<svg width="3807" height="2878" viewBox="0 0 3807 2878" fill="none" xmlns="http://www.w3.org/2000/svg">
<path d="M4.3869 2876.59L4.38744 1803.03L3794.82 1803.03L3795.96 2868.91L4.3869 2876.59Z" fill="url(#paint0_linear)" stroke="black"/>
<path d="M621 1431C621 1522.13 552.5 1596 468 1596C383.5 1596 315 1522.13 315 1431C315 1339.87 383.5 1266 468 1266C552.5 1266 621 1339.87 621 1431Z" fill="#3860ED" fill-opacity="0.71"/>
<path d="M3154 347C3154 438.127 3085.5 512 3001 512C2916.5 512 2848 438.127 2848 347C2848 255.873 2916.5 182 3001 182C3085.5 182 3154 255.873 3154 347Z" fill="#3860ED" fill-opacity="0.71"/>
<path d="M813 1352.5C813 1472.07 723.009 1569 612 1569C500.991 1569 411 1472.07 411 1352.5C411 1232.93 500.991 1136 612 1136C723.009 1136 813 1232.93 813 1352.5Z" fill="#3860ED" fill-opacity="0.76"/>
<path d="M3403 216.5C3403 336.07 3313.01 433 3202 433C3090.99 433 3001 336.07 3001 216.5C3001 96.9303 3090.99 0 3202 0C3313.01 0 3403 96.9303 3403 216.5Z" fill="#3860ED" fill-opacity="0.76"/>
<path d="M3799.65 1782C3799.65 1852.69 3949.08 2228 2900.11 2228C1851.14 2228 1 1852.69 1 1782C1 1711.31 851.358 1654 1900.33 1654C2949.3 1654 3799.65 1711.31 3799.65 1782Z" fill="#F1EEEE"/>
<path d="M0 2699.81L3799 2603V2699.81V2877H0V2699.81Z" fill="#EA4B4F"/>
<defs>
<linearGradient id="paint0_linear" x1="1894.91" y1="1418.46" x2="1897.86" y2="2873.25" gradientUnits="userSpaceOnUse">
<stop stop-color="#7B95F1"/>
<stop offset="1" stop-color="#2E53D5"/>
</linearGradient>
</defs>
</svg>
