<svg width="2838" height="1882" viewBox="0 0 2838 1882" fill="none" xmlns="http://www.w3.org/2000/svg">
<rect x="1.50127" y="1639.04" width="1638.44" height="2827.05" transform="rotate(-89.8538 1.50127 1639.04)" fill="#13CDCD"/>
<rect x="1.50127" y="1639.04" width="1638.44" height="2827.05" transform="rotate(-89.8538 1.50127 1639.04)" fill="url(#paint0_linear)"/>
<rect x="1.50127" y="1639.04" width="1638.44" height="2827.05" transform="rotate(-89.8538 1.50127 1639.04)" stroke="black"/>
<path d="M1 177V0H178L1 177Z" fill="#4B75C7" fill-opacity="0.13"/>
<path d="M1 708V531H178L1 708Z" fill="#4B75C7" fill-opacity="0.13"/>
<path d="M1 531V354H178L1 531Z" fill="#4B75C7" fill-opacity="0.13"/>
<path d="M1 1239V1062H178L1 1239Z" fill="#4B75C7" fill-opacity="0.13"/>
<path d="M1 1416V1239H178L1 1416Z" fill="#4B75C7" fill-opacity="0.13"/>
<path d="M886 1416V1239H1063L886 1416Z" fill="#4B75C7" fill-opacity="0.13"/>
<path d="M178 354V177H355L178 354Z" fill="#4B75C7" fill-opacity="0.13"/>
<path d="M178 708V531H355L178 708Z" fill="#4B75C7" fill-opacity="0.13"/>
<path d="M355 177V0H532L355 177Z" fill="#4B75C7" fill-opacity="0.13"/>
<path d="M178 177V0H355L178 177Z" fill="#4B75C7" fill-opacity="0.13"/>
<path d="M532 354V177H709L532 354Z" fill="#4B75C7" fill-opacity="0.13"/>
<path d="M355 354V708L709 354H355Z" fill="#4B75C7" fill-opacity="0.13"/>
<path d="M709 177V0H886L709 177Z" fill="#4B75C7" fill-opacity="0.13"/>
<path d="M709 354V177H886L709 354Z" fill="#4B75C7" fill-opacity="0.13"/>
<path d="M709 708V531H886L709 708Z" fill="#4B75C7" fill-opacity="0.13"/>
<path d="M532 708V531H709L532 708Z" fill="#4B75C7" fill-opacity="0.13"/>
<path d="M709 1062V885H886L709 1062Z" fill="#4B75C7" fill-opacity="0.13"/>
<path d="M886 531V354H1063L886 531Z" fill="#4B75C7" fill-opacity="0.13"/>
<path d="M709 1062V1416L1063 1062H709Z" fill="#4B75C7" fill-opacity="0.13"/>
<path d="M886 708V1062L1240 708H886Z" fill="#4B75C7" fill-opacity="0.13"/>
<path d="M1063 0V354L1417 0H1063Z" fill="#4B75C7" fill-opacity="0.13"/>
<path d="M1240 531V354H1417L1240 531Z" fill="#4B75C7" fill-opacity="0.13"/>
<path d="M1240 708V531H1417L1240 708Z" fill="#4B75C7" fill-opacity="0.13"/>
<path d="M1063 1062V1416L1417 1062H1063Z" fill="#4B75C7" fill-opacity="0.13"/>
<path d="M1417 177V0H1594L1417 177Z" fill="#4B75C7" fill-opacity="0.13"/>
<path d="M1240 708V1062L1594 708H1240Z" fill="#4B75C7" fill-opacity="0.13"/>
<path d="M1417 1062V885H1594L1417 1062Z" fill="#4B75C7" fill-opacity="0.13"/>
<path d="M1063 531V354H1240L1063 531Z" fill="#4B75C7" fill-opacity="0.13"/>
<path d="M1417 1239V1416H1594L1771 1239H1417Z" fill="#4B75C7" fill-opacity="0.13"/>
<path d="M1417 177V708L1948 177H1417Z" fill="#4B75C7" fill-opacity="0.13"/>
<path d="M1948 708V531H2125L1948 708Z" fill="#4B75C7" fill-opacity="0.13"/>
<path d="M1594 708V1239L2125 708H1594Z" fill="#4B75C7" fill-opacity="0.13"/>
<path d="M178 885V1416L709 885H178Z" fill="#4B75C7" fill-opacity="0.13"/>
<path d="M1948 1062V885H2125L1948 1062Z" fill="#4B75C7" fill-opacity="0.13"/>
<path d="M1771 1062V1416L2125 1062H1771Z" fill="#4B75C7" fill-opacity="0.13"/>
<path d="M1948 0V354L2302 0H1948Z" fill="#4B75C7" fill-opacity="0.13"/>
<path d="M2125 531V354H2302L2125 531Z" fill="#4B75C7" fill-opacity="0.13"/>
<path d="M2302 177V0H2479L2302 177Z" fill="#4B75C7" fill-opacity="0.13"/>
<path d="M2302 531V354H2479L2302 531Z" fill="#4B75C7" fill-opacity="0.13"/>
<path d="M2125 708V531H2302L2125 708Z" fill="#4B75C7" fill-opacity="0.13"/>
<path d="M2302 885V708H2479L2302 885Z" fill="#4B75C7" fill-opacity="0.13"/>
<path d="M2125 885V1239L2479 885H2125Z" fill="#4B75C7" fill-opacity="0.13"/>
<path d="M1948 1239V1416H2302L2479 1239H1948Z" fill="#4B75C7" fill-opacity="0.13"/>
<path d="M2479 177V0H2656L2479 177Z" fill="#4B75C7" fill-opacity="0.13"/>
<path d="M2479 354V177H2656L2479 354Z" fill="#4B75C7" fill-opacity="0.13"/>
<path d="M2479 708V531H2656L2479 708Z" fill="#4B75C7" fill-opacity="0.13"/>
<path d="M2479 885V708H2656L2479 885Z" fill="#4B75C7" fill-opacity="0.13"/>
<path d="M2479 1239V1062H2656L2479 1239Z" fill="#4B75C7" fill-opacity="0.13"/>
<path d="M2656 354V708L2833 531V354H2656Z" fill="#4B75C7" fill-opacity="0.13"/>
<path d="M2656 1062V885H2833L2656 1062Z" fill="#4B75C7" fill-opacity="0.13"/>
<path d="M2479 1239V1416H2656L2833 1239H2479Z" fill="#4B75C7" fill-opacity="0.13"/>
<path d="M2838 1644.47C2838 1977 1729.31 1862.5 1328 1862.5C926.689 1862.5 0 1904.03 0 1634.5C0 1417.03 228.066 1305.1 615.066 1305.1C1033.57 1305.1 2838 1427 2838 1644.47Z" fill="#F1EEEE"/>
<defs>
<linearGradient id="paint0_linear" x1="820.721" y1="1639.54" x2="820.721" y2="4467.59" gradientUnits="userSpaceOnUse">
<stop stop-color="#3860ED"/>
<stop offset="1" stop-color="white" stop-opacity="0"/>
</linearGradient>
</defs>
</svg>
