<?xml version="1.0" standalone="no"?>
<svg
  width="600"
  height="600"
  viewBox="0 0 600 600"
  xmlns="http://www.w3.org/2000/svg"
>
  <g transform="translate(300,300)">
    <path d="M129.9,-138.9C175.9,-116.3,225.8,-82.5,245.1,-34.2C264.4,14.1,253,76.8,220.7,122.3C188.3,167.9,135,196.2,82.6,206.3C30.2,216.4,-21.3,208.3,-61.2,186C-101.1,163.8,-129.4,127.4,-160.9,86.3C-192.4,45.3,-227.2,-0.5,-224.2,-43.3C-221.1,-86.2,-180.3,-126.2,-136.6,-149.2C-93,-172.2,-46.5,-178.1,-2.2,-175.4C42,-172.7,84,-161.4,129.9,-138.9Z" fill="#3860ED" />
  </g>
</svg>
  