<svg width="6749" height="4673" viewBox="0 0 6749 4673" fill="none" xmlns="http://www.w3.org/2000/svg">
	<rect x="17.7317" y="3887.99" width="3887.5" height="6706.7" transform="rotate(-89.8538 17.7317 3887.99)" fill="#13CDCD"/>
	<rect x="17.7317" y="3887.99" width="3887.5" height="6706.7" transform="rotate(-89.8538 17.7317 3887.99)" fill="url(#paint0_linear)"/>
	<rect x="17.7317" y="3887.99" width="3887.5" height="6706.7" transform="rotate(-89.8538 17.7317 3887.99)" stroke="black"/>
	<g clip-path="url(#clip0)">
		<path d="M31.4629 448.277V28.46H451.279L31.4629 448.277Z" fill="#4B75C7" fill-opacity="0.13"/>
		<path d="M31.4629 1707.73V1287.91H451.279L31.4629 1707.73Z" fill="#4B75C7" fill-opacity="0.13"/>
		<path d="M31.4629 1287.91V868.093H451.279L31.4629 1287.91Z" fill="#4B75C7" fill-opacity="0.13"/>
		<path d="M31.4629 2967.18V2547.36H451.279L31.4629 2967.18Z" fill="#4B75C7" fill-opacity="0.13"/>
		<path d="M31.4629 3386.99V2967.18H451.279L31.4629 3386.99Z" fill="#4B75C7" fill-opacity="0.13"/>
		<path d="M2130.54 3386.99V2967.18H2550.36L2130.54 3386.99Z" fill="#4B75C7" fill-opacity="0.13"/>
		<path d="M451.279 868.093V448.276H871.096L451.279 868.093Z" fill="#4B75C7" fill-opacity="0.13"/>
		<path d="M451.279 1707.73V1287.91H871.096L451.279 1707.73Z" fill="#4B75C7" fill-opacity="0.13"/>
		<path d="M871.096 448.277V28.46H1290.91L871.096 448.277Z" fill="#4B75C7" fill-opacity="0.13"/>
		<path d="M451.279 448.277V28.46H871.096L451.279 448.277Z" fill="#4B75C7" fill-opacity="0.13"/>
		<path d="M1290.91 868.093V448.276H1710.73L1290.91 868.093Z" fill="#4B75C7" fill-opacity="0.13"/>
		<path d="M871.096 868.093V1707.73L1710.73 868.093H871.096Z" fill="#4B75C7" fill-opacity="0.13"/>
		<path d="M1710.73 448.277V28.46H2130.54L1710.73 448.277Z" fill="#4B75C7" fill-opacity="0.13"/>
		<path d="M1710.73 868.093V448.276H2130.54L1710.73 868.093Z" fill="#4B75C7" fill-opacity="0.13"/>
		<path d="M1710.73 1707.73V1287.91H2130.54L1710.73 1707.73Z" fill="#4B75C7" fill-opacity="0.13"/>
		<path d="M1290.91 1707.73V1287.91H1710.73L1290.91 1707.73Z" fill="#4B75C7" fill-opacity="0.13"/>
		<path d="M1710.73 2547.36V2127.54H2130.54L1710.73 2547.36Z" fill="#4B75C7" fill-opacity="0.13"/>
		<path d="M2130.54 1287.91V868.093H2550.36L2130.54 1287.91Z" fill="#4B75C7" fill-opacity="0.13"/>
		<path d="M1710.73 2547.36V3386.99L2550.36 2547.36H1710.73Z" fill="#4B75C7" fill-opacity="0.13"/>
		<path d="M2130.54 1707.73V2547.36L2970.18 1707.73H2130.54Z" fill="#4B75C7" fill-opacity="0.13"/>
		<path d="M2550.36 28.46V868.093L3390 28.46H2550.36Z" fill="#4B75C7" fill-opacity="0.13"/>
		<path d="M2970.18 1287.91V868.093H3390L2970.18 1287.91Z" fill="#4B75C7" fill-opacity="0.13"/>
		<path d="M2970.18 1707.73V1287.91H3390L2970.18 1707.73Z" fill="#4B75C7" fill-opacity="0.13"/>
		<path d="M2550.36 2547.36V3386.99L3390 2547.36H2550.36Z" fill="#4B75C7" fill-opacity="0.13"/>
		<path d="M3390 448.277V28.46H3809.81L3390 448.277Z" fill="#4B75C7" fill-opacity="0.13"/>
		<path d="M2970.18 1707.73V2547.36L3809.81 1707.73H2970.18Z" fill="#4B75C7" fill-opacity="0.13"/>
		<path d="M3390 2547.36V2127.54H3809.81L3390 2547.36Z" fill="#4B75C7" fill-opacity="0.13"/>
		<path d="M2550.36 1287.91V868.093H2970.18L2550.36 1287.91Z" fill="#4B75C7" fill-opacity="0.13"/>
		<path d="M3390 2967.18V3386.99H3809.81L4229.63 2967.18H3390Z" fill="#4B75C7" fill-opacity="0.13"/>
		<path d="M3390 448.276V1707.73L4649.45 448.276H3390Z" fill="#4B75C7" fill-opacity="0.13"/>
		<path d="M4649.45 1707.73V1287.91H5069.26L4649.45 1707.73Z" fill="#4B75C7" fill-opacity="0.13"/>
		<path d="M3809.81 1707.73V2967.18L5069.26 1707.73H3809.81Z" fill="#4B75C7" fill-opacity="0.13"/>
		<path d="M451.279 2127.54V3386.99L1710.73 2127.54H451.279Z" fill="#4B75C7" fill-opacity="0.13"/>
		<path d="M4649.45 2547.36V2127.54H5069.26L4649.45 2547.36Z" fill="#4B75C7" fill-opacity="0.13"/>
		<path d="M4229.63 2547.36V3386.99L5069.26 2547.36H4229.63Z" fill="#4B75C7" fill-opacity="0.13"/>
		<path d="M4649.45 28.46V868.093L5489.08 28.46H4649.45Z" fill="#4B75C7" fill-opacity="0.13"/>
		<path d="M5069.26 1287.91V868.093H5489.08L5069.26 1287.91Z" fill="#4B75C7" fill-opacity="0.13"/>
		<path d="M5489.08 448.277V28.46H5908.9L5489.08 448.277Z" fill="#4B75C7" fill-opacity="0.13"/>
		<path d="M5489.08 1287.91V868.093H5908.9L5489.08 1287.91Z" fill="#4B75C7" fill-opacity="0.13"/>
		<path d="M5069.26 1707.73V1287.91H5489.08L5069.26 1707.73Z" fill="#4B75C7" fill-opacity="0.13"/>
		<path d="M5489.08 2127.54V1707.73H5908.9L5489.08 2127.54Z" fill="#4B75C7" fill-opacity="0.13"/>
		<path d="M5069.26 2127.54V2967.18L5908.9 2127.54H5069.26Z" fill="#4B75C7" fill-opacity="0.13"/>
		<path d="M4649.45 2967.18V3386.99H5489.08L5908.9 2967.18H4649.45Z" fill="#4B75C7" fill-opacity="0.13"/>
		<path d="M5908.89 448.277V28.46H6328.71L5908.89 448.277Z" fill="#4B75C7" fill-opacity="0.13"/>
		<path d="M5908.89 868.093V448.276H6328.71L5908.89 868.093Z" fill="#4B75C7" fill-opacity="0.13"/>
		<path d="M5908.89 1707.73V1287.91H6328.71L5908.89 1707.73Z" fill="#4B75C7" fill-opacity="0.13"/>
		<path d="M5908.89 2127.54V1707.73H6328.71L5908.89 2127.54Z" fill="#4B75C7" fill-opacity="0.13"/>
		<path d="M5908.89 2967.18V2547.36H6328.71L5908.89 2967.18Z" fill="#4B75C7" fill-opacity="0.13"/>
		<path d="M6328.71 868.093V1707.73L6748.53 1287.91V868.093H6328.71Z" fill="#4B75C7" fill-opacity="0.13"/>
		<path d="M6328.71 2547.36V2127.54H6748.53L6328.71 2547.36Z" fill="#4B75C7" fill-opacity="0.13"/>
		<path d="M5908.89 2967.18V3386.99H6328.71L6748.53 2967.18H5908.89Z" fill="#4B75C7" fill-opacity="0.13"/>
	</g>
	<path d="M6734.3 3890.71C6734.3 4679.41 5481 4085.5 1807 4672.5C855.153 4672.5 0.5 4602.77 0.5 3963.5C0.5 3447.68 543.937 3085.77 1461.84 3085.77C2454.46 3085.77 6734.3 3374.9 6734.3 3890.71Z" fill="#F1EEEE"/>
	<defs>
		<linearGradient id="paint0_linear" x1="1961.48" y1="3888.49" x2="1961.48" y2="10596.2" gradientUnits="userSpaceOnUse">
			<stop stop-color="#3860ED"/>
			<stop offset="1" stop-color="white" stop-opacity="0"/>
		</linearGradient>
		<clipPath id="clip0">
			<rect x="31.4629" y="28.46" width="6717.06" height="3358.53" fill="white"/>
		</clipPath>
	</defs>
</svg>
