<svg width="479" height="181" viewBox="0 0 479 181" fill="none" xmlns="http://www.w3.org/2000/svg">
<g clip-path="url(#clip0)">
<path d="M301.089 14.2688C281.376 49.5475 271.17 74.1527 269.369 90.2191C267.968 102.353 272.271 116.06 280.576 125.947C286.279 132.801 291.683 136.396 299.888 138.755C316.999 143.811 334.91 135.61 344.716 118.195C348.118 112.24 350.92 101.454 350.92 94.2638C350.92 83.815 343.115 60.4457 332.808 39.9975C325.604 25.7287 310.895 0 309.894 0C309.494 0 305.491 6.4041 301.089 14.2688ZM320.1 73.1415C325.104 75.9503 329.606 82.4668 330.907 88.8709C335.31 109.319 316.999 125.61 300.088 116.173C281.676 105.836 285.579 75.2762 305.892 70.6698C310.394 69.6586 315.498 70.5574 320.1 73.1415Z" fill="#E5424A"/>
<path d="M93.5586 43.7051C77.9488 48.1992 66.0413 63.2545 63.84 81.2309C63.4397 85.0509 63.2396 90.2191 63.4397 92.6908C64.7405 105.836 76.3478 134.261 92.0576 162.349C105.566 186.393 102.864 185.606 112.37 168.866C123.377 149.429 134.784 125.498 139.888 111.229C147.192 90.7809 146.091 74.0403 136.586 60.558C129.381 50.3339 124.278 46.5139 113.271 43.2557C105.866 41.121 101.964 41.2334 93.5586 43.7051ZM116.173 67.0745C121.476 71.2315 125.779 80.3321 125.779 87.7473C125.779 94.4885 121.476 104.038 116.873 107.521C111.47 111.678 106.166 112.802 99.7625 111.341C78.9494 106.623 76.1477 74.6021 95.7599 64.6027C101.263 61.7939 110.969 63.0298 116.173 67.0745Z" fill="#E5424A"/>
<path d="M159.6 51.3451L156.798 51.7945V90.5561V129.205H164.803H172.808V116.959V104.825L181.113 104.263C194.422 103.477 202.327 97.1849 204.828 85.3879C206.229 78.7591 205.529 68.8721 203.427 64.1533C200.926 58.8727 195.623 53.9292 190.419 52.2439C185.716 50.671 166.804 50.1092 159.6 51.3451ZM186.317 66.7374C190.82 71.7933 190.82 83.2532 186.317 88.3091C184.315 90.5561 182.915 91.0055 178.312 91.0055H172.808V77.5232V64.0409H178.312C182.915 64.0409 184.315 64.4903 186.317 66.7374Z" fill="white"/>
<path d="M407.055 52.0192C405.654 52.6933 404.153 54.828 403.753 56.738C403.252 58.5356 403.052 71.2315 403.353 84.7138C403.753 98.3084 403.753 109.207 403.553 108.87C403.353 108.645 402.152 105.611 400.951 102.241C399.75 98.8702 394.947 86.062 390.244 73.8156L381.639 51.6821H372.333H362.927V90.4438V129.205H370.632H378.237L377.636 100.78L377.136 72.4673L379.938 80.332C381.539 84.6014 386.342 97.2973 390.745 108.42L398.65 128.644L408.356 128.981L417.962 129.318V89.882V50.5586H413.759C411.358 50.5586 408.356 51.2327 407.055 52.0192Z" fill="#FFF7F7"/>
<path d="M38.0238 129.205C43.0269 129.205 38.1239 129.205 45.5285 129.205H53.0332V90.4438V51.6821H45.5285H38.0238V66.8497V82.0173H27.0169H16.01V66.8497V51.6821H8.00501H0V90.4438V129.205H5.00313C7.80489 129.205 9.00564 129.205 16.01 129.205H38.0238ZM38.5241 104.038C38.5241 109.656 38.5241 124.711 38.5241 129.205C38.5241 129.205 33.521 129.205 25.516 129.205H16.5103V111.341V97.7467H27.5172H38.5241V104.038Z" fill="white"/>
<path d="M214.434 56.6256C214.034 59.3221 214.034 62.9174 214.434 64.6027L215.135 67.7485L229.944 67.1868L244.753 66.625L243.052 69.0968C242.152 70.445 234.947 81.1185 227.142 92.6908C212.033 114.937 212.033 115.049 213.434 124.936L214.134 129.205H234.347C261.264 129.205 262.865 128.531 262.865 116.847C262.865 111.678 262.664 111.117 261.163 111.791C258.962 112.69 253.659 113.251 240.05 113.925L229.744 114.487L235.447 106.398C251.557 83.4779 261.864 67.0744 261.864 64.4903C261.864 62.9174 261.364 59.4345 260.763 56.6256L259.663 51.6821H237.349H215.035L214.434 56.6256Z" fill="white"/>
<path d="M433 87.5034V123.007L435.902 126.265L438.804 129.523H456.014H473.225L476.127 126.265C478.428 123.681 479.029 121.883 479.029 118.4V113.794H464.019H449.01V106.491V99.1881H459.917C472.024 99.1881 472.024 99.1881 472.024 91.3234C472.024 83.4587 472.024 83.4587 459.917 83.4587H449.01V75.594V67.7294H462.518C472.625 67.7294 476.227 67.3923 476.627 66.2688C477.128 64.6958 477.428 58.6288 477.228 54.4718L477.028 52H455.014H433V87.5034Z" fill="white"/>
</g>
<defs>
<clipPath id="clip0">
<rect width="479" height="181" fill="white"/>
</clipPath>
</defs>
</svg>
